<?xml version="1.0" encoding="UTF-8" standalone="no"?>
<!DOCTYPE svg PUBLIC "-//W3C//DTD SVG 1.1//EN" "http://www.w3.org/Graphics/SVG/1.1/DTD/svg11.dtd">
<!-- Created with Linearity Curve (http://linearity.io/curve) -->
<svg height="512.0px" stroke-miterlimit="10" style="fill-rule:nonzero;clip-rule:evenodd;stroke-linecap:round;stroke-linejoin:round;" version="1.1" viewBox="0 0 512 512" width="512.0px" xml:space="preserve" xmlns="http://www.w3.org/2000/svg" xmlns:xlink="http://www.w3.org/1999/xlink">
<defs/>
<g id="Layer-1" opacity="0.5" visibility="hidden">
<path d="M15.829 250.87L167.949 180.936L196.916 15.3384L310.044 139.139L475.659 115.612L393.456 262.059L466.844 413.116L302.913 379.825L182.654 496.711L163.541 329.688L15.829 250.87Z" fill="none" opacity="1" stroke="#000000" stroke-linecap="butt" stroke-linejoin="round" stroke-width="15.1923"/>
</g>
<g id="Layer-2">
<path d="M328.272 345.589C315.071 352.441 309.654 372.544 303.005 385.652C290.589 410.126 275.811 433.469 262.211 457.384C260.024 461.23 248.574 485.439 245.134 487.411C242.175 489.108 239.662 480.331 239.224 479.37C235.309 470.786 231.793 462.015 228.1 453.336C217.739 428.992 206.451 405.302 195.741 381.207C189.113 366.294 185.272 350.445 175.727 336.849C170.322 329.152 154.724 327.498 146.359 324.46C117.991 314.16 89.9285 306.899 59.8965 302.841C48.1415 301.253 16.2202 300.937 15.1315 299.094C13.9959 297.172 24.1615 290.07 25.1596 289.222C33.3381 282.276 41.8688 275.34 49.84 268.137C58.6553 260.172 65.9448 250.747 74.7241 242.814C77.8345 240.004 93.0353 225.191 98.5576 221.278C110.273 212.977 120.666 205.356 131.267 195.777C133.695 193.583 138.262 192.255 140.244 189.693C141.332 188.287 135.763 161.491 135.455 158.339C132.67 129.811 130.463 101.269 127.844 72.7691C126.813 61.5565 125.024 50.3328 125.985 39.1729C126.298 35.5358 124.666 25.0915 125.563 25.3625C128.678 26.3032 132.541 31.1691 134.962 33.0882C142.612 39.1522 150.447 45.2817 158.656 50.6045C169.41 57.5777 181.007 63.2375 191.105 71.1564C194.994 74.206 197.952 78.2972 201.91 81.2614C212.579 89.2524 225.764 93.9727 237.476 100.214C244.055 103.72 262.511 117.566 269.469 116.718C272.888 116.301 304.294 97.8726 317.642 90.2191C341.572 76.4971 368.271 67.6791 392.526 54.5865C402.222 49.3525 426.913 34.5829 428.317 37.2488C430.088 40.6108 425.273 50.4319 424.301 53.0418C420.006 64.5725 416.532 76.3915 412.203 87.8958C403.93 109.883 399.43 131.06 394.055 153.762C390.316 169.553 385.936 186.36 384.547 202.494C383.743 211.843 399.93 224.574 405.563 230.539C425.953 252.13 442.674 276.755 461.973 299.182C469.381 307.79 469.262 308.114 480.762 321.335C480.762 321.335 494.132 336.537 492.946 336.88C490.703 337.53 469.325 338.633 466.312 338.818C450.512 339.786 447.438 338.407 431.751 340.681C418.167 342.65 404.78 342.416 391.203 344.072C370.573 346.586 346.946 335.895 328.272 345.589Z" fill="none" opacity="1" stroke="#000000" stroke-linecap="round" stroke-linejoin="round" stroke-width="15.1923"/>
</g>
</svg>
